<svg width="40" height="40" viewBox="0 0 40 40" fill="none" xmlns="http://www.w3.org/2000/svg">
<path d="M0 8C0 3.58172 3.58172 0 8 0H32C36.4183 0 40 3.58172 40 8V32C40 36.4183 36.4183 40 32 40H8C3.58172 40 0 36.4183 0 32V8Z" fill="white"/>
<path d="M11.4434 19.0511C10.8414 19.634 10.8196 20.579 11.3946 21.1619L20.7658 30.6605C21.3408 31.2434 22.295 31.2434 22.897 30.6605C23.499 30.0776 23.5209 29.1326 22.9458 28.5497L14.6159 20.1065L23.336 11.6634C23.938 11.0805 23.9598 10.1355 23.3847 9.55263C22.8097 8.96975 21.8555 8.96975 21.2535 9.55263L11.4434 19.0511ZM12.4502 21.5991L28.8587 21.5991L28.9277 18.614L12.5191 18.614L12.4502 21.5991Z" fill="black"/>
</svg>
