<svg width="40" height="41" viewBox="0 0 40 41" fill="none" xmlns="http://www.w3.org/2000/svg">
<path d="M0 8C0 3.58172 3.58172 0 8 0H32C36.4183 0 40 3.58172 40 8V32.63C40 37.0483 36.4183 40.63 32 40.63H8C3.58172 40.63 0 37.0483 0 32.63V8Z" fill="white"/>
<path d="M11.4388 19.3665C10.8408 19.9501 10.8244 20.8963 11.4022 21.4799L20.8175 30.9904C21.3952 31.574 22.3484 31.574 22.9463 30.9904C23.5443 30.4068 23.5607 29.4605 22.9829 28.8769L14.6138 20.4232L23.2757 11.9696C23.8736 11.386 23.89 10.4398 23.3122 9.85617C22.7345 9.27257 21.7813 9.27256 21.1834 9.85617L11.4388 19.3665ZM12.459 21.9176L28.8676 21.9177L28.9193 18.9289L12.5108 18.9288L12.459 21.9176Z" fill="black"/>
</svg>
