<svg width="22" height="21" viewBox="0 0 22 21" fill="none" xmlns="http://www.w3.org/2000/svg">
<path d="M11.561 20.2034L19.8454 15.1394C21.6608 14.0298 22.4123 11.8334 21.7787 9.89349L6.01071 19.5319C7.44825 20.9804 9.74575 21.313 11.561 20.2034Z" fill="#A93256"/>
<path d="M19.4632 1.98382C19.024 1.6134 18.3677 1.66946 17.9974 2.1087C17.8317 2.30528 17.6832 2.48144 17.4849 2.66438C16.4124 1.16916 14.6819 0.24242 12.5624 0.0406112C10.387 -0.166357 8.0386 0.422769 5.95 1.69945C3.86076 2.97653 2.26326 4.79901 1.45183 6.8312C0.660498 8.81314 0.693746 10.7776 1.53504 12.4142C1.28166 12.5071 1.05707 12.5591 0.806506 12.617C0.246779 12.7463 -0.102315 13.3049 0.0269031 13.8646C0.156186 14.4244 0.714811 14.7735 1.27458 14.6442C1.65882 14.5555 2.07776 14.4581 2.6182 14.218L3.53927 13.7289C4.28273 13.2744 4.54657 12.9614 4.88066 12.5651C5.26293 12.1116 5.69624 11.5975 6.72789 10.9669L6.72796 10.9669L6.72802 10.9669C7.75961 10.3363 8.41461 10.185 8.9925 10.0517C9.49758 9.93501 9.89649 9.84293 10.6402 9.38833C11.3836 8.93392 11.6474 8.62088 11.9815 8.22466C12.3638 7.77112 12.7971 7.25704 13.8288 6.62639L13.8289 6.62635L13.8289 6.62631C14.8607 5.99566 15.5157 5.8444 16.0936 5.71104C16.5987 5.59435 16.9976 5.50227 17.7411 5.04778L18.5962 4.45131C19.0564 4.07974 19.3342 3.75128 19.5883 3.44974C19.9585 3.01037 19.9027 2.35405 19.4632 1.98382Z" fill="#A93256"/>
<path d="M20.0372 6.08287L18.8264 6.82299C17.7948 7.45356 17.1398 7.60482 16.5618 7.73818C16.0567 7.85487 15.6578 7.94695 14.9142 8.40152L14.9141 8.40155L14.9141 8.40159C14.1704 8.85616 13.9065 9.16924 13.5723 9.56554C13.1902 10.0191 12.7569 10.533 11.7254 11.1635C10.6937 11.7942 10.0387 11.9455 9.4607 12.0788C8.95563 12.1955 8.55672 12.2876 7.8132 12.7421C7.06962 13.1966 6.80571 13.5097 6.47155 13.906C6.08932 14.3596 5.65604 14.8735 4.62452 15.5041L3.41346 16.2443C2.94508 16.5508 2.80108 17.1755 3.09502 17.6564C3.39464 18.1466 4.03503 18.3011 4.5252 18.0014L4.82107 17.8206L20.7981 8.05437L21.094 7.87351C21.5842 7.57389 21.7387 6.9335 21.4391 6.44333C21.1451 5.96239 20.5235 5.80571 20.0372 6.08287Z" fill="#A93256"/>
</svg>
