<svg width="59" height="60" viewBox="0 0 59 60" fill="none" xmlns="http://www.w3.org/2000/svg">
<path d="M0 16C0 7.16344 7.16344 0 16 0H43C51.8366 0 59 7.16345 59 16V44C59 52.8366 51.8366 60 43 60H16C7.16344 60 0 52.8366 0 44V16Z" fill="#E9E9E9"/>
<path d="M17.3688 29.1029C16.7711 29.6866 16.7551 30.6329 17.3331 31.2165L26.7517 40.7278C27.3297 41.3115 28.2827 41.3115 28.8804 40.7278C29.4781 40.1442 29.494 39.1979 28.9161 38.6142L20.544 30.1597L29.2014 21.7053C29.7991 21.1216 29.8151 20.1753 29.2371 19.5917C28.6591 19.008 27.7061 19.008 27.1084 19.5917L17.3688 29.1029ZM18.39 31.6543L42.5927 31.6544L42.6431 28.6653L18.4405 28.6652L18.39 31.6543Z" fill="black"/>
</svg>
